PathFileType	4	(X/Y/Z)	Patient4_TMGait_0pt4_03_left_10.trc.trc
DataRate	CameraRate	NumFrames	NumMarkers	Units	OrigDataRate	OrigDataStartFrame	OrigNumFrames
75.675675675676	75.675675675676	5	33	mm	75.675675675676	18	       141
Frame#	Time	Sacral			L.Shoulder			Chest			R.Shoulder			Neck			R.ASIS			L.ASIS			R.Thigh.Superior			R.Thigh.Lateral			R.Thigh.Inferior			R.Patella			L.Thigh.Superior			L.Thigh.Lateral			L.Thigh.Inferior			L.Patella			L.Shank.Superior			L.Shank.Lateral			L.Shank.Inferior			R.Shank.Superior			R.Shank.Lateral			R.Shank.Inferior			R.Heel			R.Midfoot.Superior			R.Midfoot.Lateral			R.Toe			L.Heel			L.Midfoot.Lateral			L.Midfoot.Superior			L.Toe			L.Elbow			L.Wrist			R.Elbow			R.Wrist			
		X1	Y1	Z1	X2	Y2	Z2	X3	Y3	Z3	X4	Y4	Z4	X5	Y5	Z5	X6	Y6	Z6	X7	Y7	Z7	X8	Y8	Z8	X9	Y9	Z9	X10	Y10	Z10	X11	Y11	Z11	X12	Y12	Z12	X13	Y13	Z13	X14	Y14	Z14	X15	Y15	Z15	X16	Y16	Z16	X17	Y17	Z17	X18	Y18	Z18	X19	Y19	Z19	X20	Y20	Z20	X21	Y21	Z21	X22	Y22	Z22	X23	Y23	Z23	X24	Y24	Z24	X25	Y25	Z25	X26	Y26	Z26	X27	Y27	Z27	X28	Y28	Z28	X29	Y29	Z29	X30	Y30	Z30	X31	Y31	Z31	X32	Y32	Z32	X33	Y33	Z33	

18	12.944642857143	819.291206245739	1012.909044982903	530.378801077646	977.669998359400	1433.504318254501	323.606574236485	1106.773960786239	1363.105716766296	463.708454119368	1059.392414948082	1438.813014981673	649.945833819462	983.699888186385	1494.525567336143	480.555394277933	1057.580188630597	936.754142456342	612.937015151783	1008.452913997697	965.183044367614	342.522007062950	1059.899473076315	727.916515243936	583.458574170328	966.813238202637	630.931647163920	653.984258856373	1024.295629614818	568.613600394770	568.980502074299	1011.435140074417	485.261636814983	576.560415197584	1079.172649369383	775.886444904121	365.944661714058	1027.011638059979	653.146652143186	282.650379837342	1128.680155498946	588.382730206400	341.255431548319	1154.960291422089	526.836784975956	333.967703976482	1139.116875891367	457.612082380367	320.135011542182	1076.124338234224	327.870022629180	264.339777616511	1167.903259842521	228.980473484075	312.784435878571	977.409836800647	399.198673572497	584.834341987841	901.603600658717	300.550488238881	649.254244479178	933.109042099724	203.208545122476	583.715355290167	790.210451082966	43.027223680828	555.145585739641	960.508899555290	95.564979351531	592.157569302660	872.689708326777	36.537885566114	630.301732595621	1081.136732212362	42.378018943231	621.340096579590	1090.970927838946	47.440443778852	346.890098876808	1165.368040533633	52.587963994040	267.750366613003	1234.812885908792	131.801792666211	289.047406543464	1368.973369361206	105.238881501094	263.671083161885	847.202306748458	1098.171750404142	242.675325272844	838.896450931762	836.142211942931	248.837706107620	1191.728406471169	1130.821629560055	779.110823142439	1429.259302112798	1176.175789667627	706.154031112010	
19	12.957857142857	819.765665046952	1012.475369720124	528.242991758729	977.957600455625	1432.885383216241	321.300045730984	1107.125616713494	1362.481890618226	461.335742278844	1059.800104838113	1438.198899477448	647.558074757843	983.862065208208	1493.832534343753	478.241704117617	1057.835822660001	936.161107714810	611.066529034393	1009.053739221860	964.068370827153	340.449653205911	1058.412445959980	726.948902082511	582.120403743079	964.362637660132	630.748415180187	652.874853326067	1021.189403109204	567.833305931091	568.074716492596	1007.817781056801	484.602314465989	575.745007780188	1079.457809095970	774.550715820340	364.210105304858	1025.782968570130	650.828947423142	282.814683338550	1127.928158407191	586.555321167674	340.593455075204	1153.602465803035	524.733783560342	334.349542904011	1137.464729225443	455.171261638864	321.233398532130	1073.517092253715	325.554759744319	266.753362624166	1164.700699424082	226.500172228855	315.528560790727	973.322905301420	398.830068626548	584.168441339138	897.126674863399	300.609546161488	648.871240138909	928.189976874524	203.005232553996	583.471444944630	784.863423105361	42.944107964130	555.166330598596	955.147944951198	95.539442902262	592.154656322129	867.321367633260	36.475939206080	630.291734271940	1075.761170092356	42.397851127766	621.349679570184	1086.345030377744	46.804162713062	350.986669131129	1160.724243614617	50.288850674178	271.808495170839	1231.269105099957	128.253145152080	292.671912225421	1364.872141722701	99.406272327081	267.575604694130	844.958477992957	1098.581094897309	241.687071841325	834.130056412706	836.626141843134	249.077638559302	1193.928055704319	1130.693384522240	775.358704812952	1430.100722674817	1180.168733424607	701.394100728411	
20	12.971071428571	820.415815211234	1011.811987411231	525.825100452591	978.193445262230	1432.111521560298	318.756236835366	1107.398774140514	1361.855078657507	458.821463706148	1059.920673732759	1437.515742164638	645.009604830368	983.870073791985	1493.021672520492	475.711516781303	1058.275993788886	935.527636949123	609.122298090341	1010.017493614732	962.769825408256	338.301747582270	1057.263448375895	725.935355227747	580.708337692053	962.263306173230	630.476168972975	651.670556500806	1018.489648937409	566.971739477095	567.094799054714	1004.596396092409	483.793668915521	574.821135986494	1080.320134015150	773.092843714002	362.395039414509	1024.958753781399	648.298139947503	283.196873041917	1127.625075723809	584.607721649701	340.168574023760	1152.461032873668	522.153760955904	335.051074061228	1135.676112735266	452.110066749349	322.619905268602	1069.921291534315	323.060492402700	269.472720986201	1159.802061344138	223.257917492229	318.607483906544	969.565251528361	398.338050739684	583.415332787778	892.897427614495	300.627312155782	648.441152491876	923.393224955097	202.723932263170	583.185141500646	779.518728254534	42.840603781697	555.189937357748	949.777428639296	95.494521855483	592.130295691584	861.955635864366	36.397034317877	630.285393915910	1070.385707055970	42.396355687795	621.363688674730	1078.878472709413	45.938410794631	355.352562647080	1153.046508569732	47.705382043399	275.934259935341	1225.186631488734	123.851729378857	296.555058476552	1358.006771182334	92.051187401451	271.220386961781	843.385907433518	1098.595456156706	240.245713878425	830.602706832069	836.708626496361	248.716093546655	1195.539567557238	1130.342792094757	771.625675108706	1430.585858699767	1183.153899381086	696.872355403611	
21	12.984285714286	821.221364344596	1010.944386089695	523.140025334381	978.407729362611	1431.191972921105	315.969394566880	1107.612594068828	1361.236359250906	456.169978489859	1059.768100145099	1436.783966857223	642.302607681404	983.752687987387	1492.115150317235	472.961929445743	1058.891532048813	934.861896181199	607.129237459343	1011.328896983567	961.322600971125	336.114115469001	1056.493704223486	724.883945609649	579.249420978316	960.557145864214	630.110275461433	650.367668932490	1016.248451292633	566.028411605623	566.032783235638	1001.823931130911	482.830359215110	573.770231494479	1081.672886271968	771.472756044977	360.583289458862	1024.497200158711	645.648659840090	283.722824717594	1127.640978661237	582.542564300001	340.032773373337	1151.415907414541	519.183474220688	336.101958149567	1133.770187026823	448.586137923028	324.229173700296	1065.657607415904	320.438470169576	272.279294250620	1153.675957550082	219.456785205922	321.859741406102	966.174092284015	397.714893067308	582.554520551860	888.949245954758	300.609130159018	647.952050155670	918.738288524830	202.368098273117	582.848156286753	774.177476742922	42.734862451469	555.221018852708	944.404878559639	95.436728486238	592.086665734325	856.597432628734	36.307269529746	630.283583657127	1065.014935261762	42.363627943204	621.383457806136	1069.357141776535	44.838719921708	359.656622730956	1143.206794552308	45.007000314166	279.875132859256	1217.235327057913	118.932591143996	300.545912779788	1349.161185332266	83.814412445293	274.599731765096	842.491606448367	1098.208664295408	238.330914025959	828.342769652826	836.375672843431	247.734887522969	1196.547996100986	1129.755080833469	767.924728650148	1430.748621799788	1185.091616242940	692.612223679334	
22	12.997500000000	822.152334520852	1009.920940484917	520.219480995765	978.634611291436	1430.152957524907	312.941035955065	1107.790075610018	1360.646647874153	453.389720383796	1059.371816123183	1436.043687828467	639.440540978913	983.545414732423	1491.152509002133	469.993382597831	1059.663852987676	934.182893403207	605.107228191621	1012.942908162444	959.790231428768	333.918914771363	1056.131253313036	723.814944073215	577.765286529745	959.275871144096	629.657263916706	648.957941701988	1014.509509931377	565.014726965559	564.877337269462	999.549478766945	481.717275271787	572.575967247028	1083.408617167015	769.696533268224	358.846524841574	1024.360469517677	643.014291370856	284.288656332579	1127.861523243949	580.411574789796	340.182872188647	1150.384664595228	515.973534176034	337.451085883562	1131.800767628276	444.818963631473	325.943850365378	1061.091217432736	317.792413760821	274.937049656899	1146.850296558162	215.372749147901	325.094073833144	963.181395607452	396.965905438197	581.568664942838	885.308431687630	300.573875999787	647.392608553736	914.243390894649	201.955005076882	582.456326698607	768.842021903494	42.661075700951	555.265437378889	939.043934140858	95.377713542051	592.029528469994	851.253483277958	36.220511371748	630.287324269989	1059.655073556255	42.288229951371	621.410295635921	1058.649996295790	43.568867703359	363.599030920393	1132.154959665295	42.393753772091	283.407331927157	1208.154814512965	113.891587578143	304.462769960434	1339.184183358474	75.402131052049	277.689580432122	842.289364631278	1097.433930109381	235.936496055673	827.360423641194	835.635003011148	246.118753134107	1196.937150222213	1128.929658305598	764.261014491065	1430.615961769283	1185.936824840867	688.631382788091	
